<svg xmlns="http://www.w3.org/2000/svg" viewBox="0 0 32 32">
  <rect width="32" height="32" rx="7" fill="#1b2a4a" />
  <path
    transform="translate(4 4)"
    fill="#ffffff"
    fill-rule="evenodd"
    clip-rule="evenodd"
    d="m13.8186 4.6664c-1.0747-.88853-2.5625-.88853-3.6371 0l-5.38611 4.45324c-.49114.40608-.79539 1.04766-.79539 1.74666v6.9446c0 1.2675.95214 2.1891 2 2.1891h2v-3.2522c0-2.2551 1.73415-4.1891 4-4.1891 2.2659 0 4 1.934 4 4.1891v3.2522h2c1.0479 0 2-.9216 2-2.1891v-6.9446c0-.699-.3042-1.34058-.7954-1.74665zm1.2744-1.54138 5.386 4.45325c.9704.80232 1.521 2.01878 1.521 3.28803v6.9446c0 2.2551-1.7341 4.1891-4 4.1891h-2c-1.1046 0-2-.8954-2-2v-3.2522c0-1.2675-.9521-2.1891-2-2.1891s-2 .9216-2 2.1891v3.2522c0 1.1046-.89543 2-2 2h-2c-2.26585 0-4-1.934-4-4.1891v-6.9446c0-1.26925.55059-2.48571 1.52097-3.28803l5.38606-4.45325c1.81427-1.50003 4.37167-1.50003 6.18597 0z"
  />
</svg>
